<svg width="22" height="16" viewBox="0 0 22 16" fill="none" xmlns="http://www.w3.org/2000/svg">
<g id="Online Store: Like (Teddy)">
<g id="Subtract">
<mask id="path-1-inside-1_547_1993" fill="white">
<path fill-rule="evenodd" clip-rule="evenodd" d="M2.04668 3.2364C3.17328 3.2364 4.08657 2.32312 4.08657 1.19652C4.08657 0.778484 3.96082 0.389817 3.74509 0.066282C4.8956 -0.140917 6.0815 0.135228 6.97243 0.929043C7.46048 1.3639 7.80439 1.90453 8.00351 2.49635C8.96305 2.10711 10.0256 1.8908 11.1434 1.8908C12.1959 1.8908 13.1993 2.08254 14.1139 2.42981C14.3872 1.70565 14.8704 1.07243 15.5468 0.631664C17.3663 -0.554009 19.8951 0.102002 21.1951 2.09691C22.495 4.09181 22.0738 6.67018 20.2543 7.85585C19.8196 8.13915 19.3443 8.31731 18.855 8.39718C18.8702 8.5781 18.878 8.76092 18.878 8.9454C18.878 12.8415 15.4151 16 11.1434 16C6.87177 16 3.40889 12.8415 3.40889 8.9454C3.40889 8.72299 3.42017 8.50299 3.44225 8.28583C2.63755 8.22832 1.86376 7.92602 1.23628 7.36694C-0.105207 6.17168 -0.35766 4.17722 0.492119 2.51736C0.866285 2.95731 1.42389 3.2364 2.04668 3.2364Z"/>
</mask>
<path d="M3.74509 0.066282L3.56784 -0.917885L2.06713 -0.647617L2.91309 0.621059L3.74509 0.066282ZM6.97243 0.929043L6.30719 1.67567L6.97243 0.929043ZM8.00351 2.49635L7.05573 2.81525L7.39463 3.82248L8.37941 3.42301L8.00351 2.49635ZM14.1139 2.42981L13.7589 3.36468L14.6956 3.72035L15.0495 2.78294L14.1139 2.42981ZM15.5468 0.631664L16.0927 1.46948L16.0927 1.46948L15.5468 0.631664ZM21.1951 2.09691L20.3573 2.64286V2.64286L21.1951 2.09691ZM20.2543 7.85585L20.8003 8.69367L20.2543 7.85585ZM18.855 8.39718L18.6939 7.41025L17.7808 7.55929L17.8585 8.48116L18.855 8.39718ZM3.44225 8.28583L4.43712 8.38697L4.54133 7.36183L3.51354 7.28838L3.44225 8.28583ZM1.23628 7.36694L1.90153 6.62032L1.23628 7.36694ZM0.492119 2.51736L1.25388 1.8695L0.284119 0.72926L-0.39801 2.06165L0.492119 2.51736ZM3.08657 1.19652C3.08657 1.77083 2.621 2.2364 2.04668 2.2364V4.2364C3.72557 4.2364 5.08657 2.8754 5.08657 1.19652H3.08657ZM2.91309 0.621059C3.02268 0.785418 3.08657 0.981992 3.08657 1.19652H5.08657C5.08657 0.574977 4.89896 -0.00578387 4.57709 -0.488495L2.91309 0.621059ZM7.63767 0.182415C6.49324 -0.837268 4.98753 -1.17356 3.56784 -0.917885L3.92233 1.05045C4.80366 0.891728 5.66976 1.10772 6.30719 1.67567L7.63767 0.182415ZM8.9513 2.17745C8.69933 1.42857 8.26136 0.738125 7.63767 0.182415L6.30719 1.67567C6.6596 1.98967 6.90944 2.38048 7.05573 2.81525L8.9513 2.17745ZM11.1434 0.890805C9.89609 0.890805 8.706 1.13225 7.62762 1.56969L8.37941 3.42301C9.22011 3.08198 10.155 2.89081 11.1434 2.89081V0.890805ZM14.4689 1.49493C13.4414 1.10481 12.3178 0.890805 11.1434 0.890805V2.89081C12.0741 2.89081 12.9572 3.06027 13.7589 3.36468L14.4689 1.49493ZM15.0008 -0.206152C14.1351 0.357962 13.5218 1.16654 13.1783 2.07667L15.0495 2.78294C15.2526 2.24475 15.6056 1.78689 16.0927 1.46948L15.0008 -0.206152ZM22.0329 1.55095C20.4798 -0.832439 17.3539 -1.73954 15.0008 -0.206152L16.0927 1.46948C17.3786 0.631523 19.3105 1.03644 20.3573 2.64286L22.0329 1.55095ZM20.8003 8.69367C23.1534 7.16028 23.586 3.93435 22.0329 1.55095L20.3573 2.64286C21.4041 4.24927 20.9943 6.18008 19.7084 7.01803L20.8003 8.69367ZM19.0161 9.38412C19.6383 9.28255 20.2454 9.05525 20.8003 8.69367L19.7084 7.01803C19.3937 7.22306 19.0503 7.35208 18.6939 7.41025L19.0161 9.38412ZM19.878 8.9454C19.878 8.73284 19.8691 8.522 19.8515 8.31321L17.8585 8.48116C17.8714 8.6342 17.878 8.78901 17.878 8.9454H19.878ZM11.1434 17C15.8788 17 19.878 13.4784 19.878 8.9454H17.878C17.878 12.2047 14.9514 15 11.1434 15V17ZM2.40889 8.9454C2.40889 13.4784 6.40807 17 11.1434 17V15C7.33546 15 4.40889 12.2047 4.40889 8.9454H2.40889ZM2.44738 8.1847C2.42189 8.43537 2.40889 8.68913 2.40889 8.9454H4.40889C4.40889 8.75685 4.41845 8.5706 4.43712 8.38697L2.44738 8.1847ZM0.571043 8.11357C1.37439 8.82935 2.36119 9.21112 3.37096 9.28329L3.51354 7.28838C2.91392 7.24552 2.35313 7.0227 1.90153 6.62032L0.571043 8.11357ZM-0.39801 2.06165C-1.42351 4.06474 -1.15974 6.57145 0.571043 8.11357L1.90153 6.62032C0.949324 5.77191 0.708187 4.2897 1.38225 2.97307L-0.39801 2.06165ZM2.04668 2.2364C1.72946 2.2364 1.44616 2.09559 1.25388 1.8695L-0.269638 3.16522C0.286412 3.81903 1.11832 4.2364 2.04668 4.2364V2.2364Z" fill="white" mask="url(#path-1-inside-1_547_1993)"/>
</g>
</g>
</svg>
