<svg width="45" height="21" viewBox="0 0 45 21" fill="none" xmlns="http://www.w3.org/2000/svg">
<g id="Loding bottun">
<path id="Subtract" fill-rule="evenodd" clip-rule="evenodd" d="M13 6.5C13 10.0899 10.0899 13 6.5 13C2.91015 13 0 10.0899 0 6.5C0 2.91015 2.91015 0 6.5 0C10.0899 0 13 2.91015 13 6.5ZM6 5C6 5.55228 5.55228 6 5 6C4.44772 6 4 5.55228 4 5C4 4.44772 4.44772 4 5 4C5.55228 4 6 4.44772 6 5ZM5 9C5.55228 9 6 8.55229 6 8C6 7.44772 5.55228 7 5 7C4.44772 7 4 7.44772 4 8C4 8.55229 4.44772 9 5 9ZM9 8C9 8.55229 8.55229 9 8 9C7.44772 9 7 8.55229 7 8C7 7.44772 7.44772 7 8 7C8.55229 7 9 7.44772 9 8ZM8 6C8.55229 6 9 5.55228 9 5C9 4.44772 8.55229 4 8 4C7.44772 4 7 4.44772 7 5C7 5.55228 7.44772 6 8 6Z" fill="white" fill-opacity="0.5"/>
<path id="Subtract_2" fill-rule="evenodd" clip-rule="evenodd" d="M29 14.5C29 18.0899 26.0899 21 22.5 21C18.9101 21 16 18.0899 16 14.5C16 10.9101 18.9101 8 22.5 8C26.0899 8 29 10.9101 29 14.5ZM22 13C22 13.5523 21.5523 14 21 14C20.4477 14 20 13.5523 20 13C20 12.4477 20.4477 12 21 12C21.5523 12 22 12.4477 22 13ZM21 17C21.5523 17 22 16.5523 22 16C22 15.4477 21.5523 15 21 15C20.4477 15 20 15.4477 20 16C20 16.5523 20.4477 17 21 17ZM25 16C25 16.5523 24.5523 17 24 17C23.4477 17 23 16.5523 23 16C23 15.4477 23.4477 15 24 15C24.5523 15 25 15.4477 25 16ZM24 14C24.5523 14 25 13.5523 25 13C25 12.4477 24.5523 12 24 12C23.4477 12 23 12.4477 23 13C23 13.5523 23.4477 14 24 14Z" fill="white" fill-opacity="0.5"/>
<path id="Subtract_3" fill-rule="evenodd" clip-rule="evenodd" d="M45 12.5C45 16.0899 42.0899 19 38.5 19C34.9101 19 32 16.0899 32 12.5C32 8.91015 34.9101 6 38.5 6C42.0899 6 45 8.91015 45 12.5ZM38 11C38 11.5523 37.5523 12 37 12C36.4477 12 36 11.5523 36 11C36 10.4477 36.4477 10 37 10C37.5523 10 38 10.4477 38 11ZM37 15C37.5523 15 38 14.5523 38 14C38 13.4477 37.5523 13 37 13C36.4477 13 36 13.4477 36 14C36 14.5523 36.4477 15 37 15ZM41 14C41 14.5523 40.5523 15 40 15C39.4477 15 39 14.5523 39 14C39 13.4477 39.4477 13 40 13C40.5523 13 41 13.4477 41 14ZM40 12C40.5523 12 41 11.5523 41 11C41 10.4477 40.5523 10 40 10C39.4477 10 39 10.4477 39 11C39 11.5523 39.4477 12 40 12Z" fill="white" fill-opacity="0.5"/>
</g>
</svg>
